<?xml version="1.0" encoding="utf-8"?>
<!-- Generator: Adobe Illustrator 23.0.3, SVG Export Plug-In . SVG Version: 6.00 Build 0)  -->
<svg version="1.1" id="Capa_1" xmlns="http://www.w3.org/2000/svg" xmlns:xlink="http://www.w3.org/1999/xlink" x="0px" y="0px"
	 viewBox="0 0 60 58" style="enable-background:new 0 0 60 58;" xml:space="preserve">
<style type="text/css">
	.st0{fill:#fff;}
</style>
<g>
	<path class="st0" d="M36.2,1.2c-0.7-0.4-1.5-0.7-2.4-0.7c-0.8,0-1.5,0.2-2.2,0.6c-0.1,0-0.1,0-0.1,0.1h-0.1L15.1,16.4H15H4.9
		c-2.6,0-4.7,2.1-4.7,4.7v15.6c0,2.6,2.1,4.7,4.7,4.7H15h0.1l16.2,15.1h0.1c0.1,0,0.1,0.1,0.2,0.1c0.7,0.4,1.5,0.5,2.2,0.5
		s1.5-0.1,2.3-0.6l0,0c0,0,0,0,0.1,0l0,0l0,0c1.4-0.9,2.3-2.4,2.3-4V5.2C38.6,3.6,37.7,2.1,36.2,1.2z M34.1,52.9
		C34,53,33.9,53,33.9,53l-16-14.9c-0.1-0.1-0.1-0.1-0.3-0.3c-0.1,0-0.2-0.1-0.3-0.1c-0.7-0.4-1.5-0.5-2.2-0.5H4.9l-0.3-0.1l-0.1-0.3
		V21.1l0.1-0.3l0.3-0.1H15c0.8,0,1.5-0.1,2.3-0.5c0.1,0,0.1,0,0.2-0.1h0.1L33.7,4.9c0.1,0,0.2,0,0.2,0l0,0H34L34.2,5
		c0,0.1,0.1,0.1,0.1,0.3v47.2c0,0.2,0,0.2-0.1,0.3L34.1,52.9z"/>
	<path class="st0" d="M42.8,17L42.8,17c-0.4-0.4-0.9-0.6-1.5-0.6c-0.5,0-1.1,0.2-1.5,0.6l0,0l0,0c-0.4,0.4-0.6,0.9-0.6,1.5
		c0,0.5,0.2,1.1,0.6,1.5l0,0c2.4,2.4,3.7,5.6,3.7,8.9c0,3.2-1.2,6.4-3.7,8.9l0,0c-0.4,0.4-0.6,0.9-0.6,1.5c0,0.5,0.2,1.1,0.6,1.5
		l0,0c0.2,0.2,0.5,0.4,0.7,0.5c0.3,0.1,0.5,0.2,0.8,0.2s0.5-0.1,0.8-0.2c0.2-0.1,0.5-0.2,0.7-0.5c3.3-3.3,4.9-7.6,4.9-11.8
		C47.8,24.6,46.1,20.3,42.8,17z"/>
	<path class="st0" d="M50.8,8.3c-0.9-1-2.2-1-3.2,0c-0.9,0.9-0.9,2.3,0,3.2c9.7,9.7,9.7,25.6,0,35.3c-0.9,0.9-0.9,2.3,0,3.2
		c0.5,0.5,1.1,0.7,1.6,0.7s1.1-0.2,1.6-0.7C62.4,38.4,62.4,19.9,50.8,8.3z"/>
</g>
</svg>
